<mxfile host="Electron" modified="2024-04-04T08:37:14.656Z" agent="Mozilla/5.0 (X11; Linux x86_64) AppleWebKit/537.36 (KHTML, like Gecko) draw.io/24.1.0 Chrome/120.0.6099.109 Electron/28.1.0 Safari/537.36" etag="sNkEYyBRzJJi-4emrERe" version="24.1.0" type="device" pages="3">
  <diagram name="Structual Diagram" id="TRSke4jGwEFZ74IsYrMw">
    <mxGraphModel dx="1434" dy="843" grid="1" gridSize="10" guides="1" tooltips="1" connect="1" arrows="1" fold="1" page="1" pageScale="1" pageWidth="827" pageHeight="1169" math="0" shadow="0">
      <root>
        <mxCell id="0" />
        <mxCell id="1" parent="0" />
        <mxCell id="3TsEPh2uta-ocImclWXM-1" value="" style="fontStyle=1;align=center;verticalAlign=top;childLayout=stackLayout;horizontal=1;horizontalStack=0;resizeParent=1;resizeParentMax=0;resizeLast=0;marginBottom=0;" parent="1" vertex="1">
          <mxGeometry x="280" y="300" width="120" height="163" as="geometry" />
        </mxCell>
        <mxCell id="3TsEPh2uta-ocImclWXM-2" value="&lt;b&gt;Planning&lt;/b&gt;" style="html=1;align=left;spacingLeft=4;verticalAlign=top;strokeColor=none;fillColor=none;whiteSpace=wrap;" parent="3TsEPh2uta-ocImclWXM-1" vertex="1">
          <mxGeometry width="120" height="40" as="geometry" />
        </mxCell>
        <mxCell id="3TsEPh2uta-ocImclWXM-3" value="" style="shape=module;jettyWidth=10;jettyHeight=4;" parent="3TsEPh2uta-ocImclWXM-2" vertex="1">
          <mxGeometry x="1" width="16" height="20" relative="1" as="geometry">
            <mxPoint x="-25" y="9" as="offset" />
          </mxGeometry>
        </mxCell>
        <mxCell id="3TsEPh2uta-ocImclWXM-4" value="" style="line;strokeWidth=1;fillColor=none;align=left;verticalAlign=middle;spacingTop=-1;spacingLeft=3;spacingRight=3;rotatable=0;labelPosition=right;points=[];portConstraint=eastwest;" parent="3TsEPh2uta-ocImclWXM-1" vertex="1">
          <mxGeometry y="40" width="120" height="8" as="geometry" />
        </mxCell>
        <mxCell id="3TsEPh2uta-ocImclWXM-5" value="&lt;u&gt;provided interfaces&lt;/u&gt;" style="html=1;align=center;spacingLeft=4;verticalAlign=top;strokeColor=none;fillColor=none;whiteSpace=wrap;" parent="3TsEPh2uta-ocImclWXM-1" vertex="1">
          <mxGeometry y="48" width="120" height="25" as="geometry" />
        </mxCell>
        <mxCell id="3TsEPh2uta-ocImclWXM-6" value="Path" style="html=1;align=left;spacingLeft=4;verticalAlign=top;strokeColor=none;fillColor=none;whiteSpace=wrap;" parent="3TsEPh2uta-ocImclWXM-1" vertex="1">
          <mxGeometry y="73" width="120" height="27" as="geometry" />
        </mxCell>
        <mxCell id="3TsEPh2uta-ocImclWXM-7" value="" style="line;strokeWidth=1;fillColor=none;align=left;verticalAlign=middle;spacingTop=-1;spacingLeft=3;spacingRight=3;rotatable=0;labelPosition=right;points=[];portConstraint=eastwest;" parent="3TsEPh2uta-ocImclWXM-1" vertex="1">
          <mxGeometry y="100" width="120" height="8" as="geometry" />
        </mxCell>
        <mxCell id="3TsEPh2uta-ocImclWXM-8" value="&lt;u&gt;required interfaces&lt;/u&gt;" style="html=1;align=center;spacingLeft=4;verticalAlign=top;strokeColor=none;fillColor=none;whiteSpace=wrap;" parent="3TsEPh2uta-ocImclWXM-1" vertex="1">
          <mxGeometry y="108" width="120" height="25" as="geometry" />
        </mxCell>
        <mxCell id="3TsEPh2uta-ocImclWXM-9" value="Cone map" style="html=1;align=left;spacingLeft=4;verticalAlign=top;strokeColor=none;fillColor=none;whiteSpace=wrap;" parent="3TsEPh2uta-ocImclWXM-1" vertex="1">
          <mxGeometry y="133" width="120" height="30" as="geometry" />
        </mxCell>
        <mxCell id="3TsEPh2uta-ocImclWXM-10" value="" style="fontStyle=1;align=center;verticalAlign=top;childLayout=stackLayout;horizontal=1;horizontalStack=0;resizeParent=1;resizeParentMax=0;resizeLast=0;marginBottom=0;" parent="1" vertex="1">
          <mxGeometry x="150" y="560" width="130" height="212" as="geometry" />
        </mxCell>
        <mxCell id="3TsEPh2uta-ocImclWXM-11" value="&lt;b&gt;Longitudinal Controller&lt;br&gt;&lt;/b&gt;" style="html=1;align=left;spacingLeft=4;verticalAlign=top;strokeColor=none;fillColor=none;whiteSpace=wrap;" parent="3TsEPh2uta-ocImclWXM-10" vertex="1">
          <mxGeometry width="130" height="40" as="geometry" />
        </mxCell>
        <mxCell id="3TsEPh2uta-ocImclWXM-12" value="" style="shape=module;jettyWidth=10;jettyHeight=4;" parent="3TsEPh2uta-ocImclWXM-11" vertex="1">
          <mxGeometry x="1" width="16" height="20" relative="1" as="geometry">
            <mxPoint x="-25" y="9" as="offset" />
          </mxGeometry>
        </mxCell>
        <mxCell id="3TsEPh2uta-ocImclWXM-13" value="" style="line;strokeWidth=1;fillColor=none;align=left;verticalAlign=middle;spacingTop=-1;spacingLeft=3;spacingRight=3;rotatable=0;labelPosition=right;points=[];portConstraint=eastwest;" parent="3TsEPh2uta-ocImclWXM-10" vertex="1">
          <mxGeometry y="40" width="130" height="8" as="geometry" />
        </mxCell>
        <mxCell id="3TsEPh2uta-ocImclWXM-14" value="&lt;u&gt;provided interfaces&lt;/u&gt;" style="html=1;align=center;spacingLeft=4;verticalAlign=top;strokeColor=none;fillColor=none;whiteSpace=wrap;" parent="3TsEPh2uta-ocImclWXM-10" vertex="1">
          <mxGeometry y="48" width="130" height="25" as="geometry" />
        </mxCell>
        <mxCell id="3TsEPh2uta-ocImclWXM-15" value="EBS Status ON/OFF" style="html=1;align=left;spacingLeft=4;verticalAlign=top;strokeColor=none;fillColor=none;whiteSpace=wrap;spacingRight=4;fontFamily=Helvetica;fontSize=12;fontColor=default;" parent="3TsEPh2uta-ocImclWXM-10" vertex="1">
          <mxGeometry y="73" width="130" height="25" as="geometry" />
        </mxCell>
        <mxCell id="3TsEPh2uta-ocImclWXM-16" value="Torque command" style="html=1;align=left;spacingLeft=4;verticalAlign=top;strokeColor=none;fillColor=none;whiteSpace=wrap;" parent="3TsEPh2uta-ocImclWXM-10" vertex="1">
          <mxGeometry y="98" width="130" height="27" as="geometry" />
        </mxCell>
        <mxCell id="3TsEPh2uta-ocImclWXM-17" value="" style="line;strokeWidth=1;fillColor=none;align=left;verticalAlign=middle;spacingTop=-1;spacingLeft=3;spacingRight=3;rotatable=0;labelPosition=right;points=[];portConstraint=eastwest;" parent="3TsEPh2uta-ocImclWXM-10" vertex="1">
          <mxGeometry y="125" width="130" height="8" as="geometry" />
        </mxCell>
        <mxCell id="3TsEPh2uta-ocImclWXM-18" value="&lt;u&gt;required interfaces&lt;/u&gt;" style="html=1;align=center;spacingLeft=4;verticalAlign=top;strokeColor=none;fillColor=none;whiteSpace=wrap;" parent="3TsEPh2uta-ocImclWXM-10" vertex="1">
          <mxGeometry y="133" width="130" height="25" as="geometry" />
        </mxCell>
        <mxCell id="3TsEPh2uta-ocImclWXM-19" value="Velocity &amp;amp; Pose" style="html=1;align=left;spacingLeft=4;verticalAlign=top;strokeColor=none;fillColor=none;whiteSpace=wrap;" parent="3TsEPh2uta-ocImclWXM-10" vertex="1">
          <mxGeometry y="158" width="130" height="27" as="geometry" />
        </mxCell>
        <mxCell id="3TsEPh2uta-ocImclWXM-20" value="Path" style="html=1;align=left;spacingLeft=4;verticalAlign=top;strokeColor=none;fillColor=none;whiteSpace=wrap;" parent="3TsEPh2uta-ocImclWXM-10" vertex="1">
          <mxGeometry y="185" width="130" height="27" as="geometry" />
        </mxCell>
        <mxCell id="3TsEPh2uta-ocImclWXM-21" value="" style="fontStyle=1;align=center;verticalAlign=top;childLayout=stackLayout;horizontal=1;horizontalStack=0;resizeParent=1;resizeParentMax=0;resizeLast=0;marginBottom=0;" parent="1" vertex="1">
          <mxGeometry x="405" y="560" width="140" height="212" as="geometry" />
        </mxCell>
        <mxCell id="3TsEPh2uta-ocImclWXM-22" value="&lt;b&gt;Lateral Controller&lt;/b&gt;" style="html=1;align=left;spacingLeft=4;verticalAlign=top;strokeColor=none;fillColor=none;whiteSpace=wrap;" parent="3TsEPh2uta-ocImclWXM-21" vertex="1">
          <mxGeometry width="140" height="40" as="geometry" />
        </mxCell>
        <mxCell id="3TsEPh2uta-ocImclWXM-23" value="" style="shape=module;jettyWidth=10;jettyHeight=4;" parent="3TsEPh2uta-ocImclWXM-22" vertex="1">
          <mxGeometry x="1" width="16" height="20" relative="1" as="geometry">
            <mxPoint x="-25" y="9" as="offset" />
          </mxGeometry>
        </mxCell>
        <mxCell id="3TsEPh2uta-ocImclWXM-24" value="" style="line;strokeWidth=1;fillColor=none;align=left;verticalAlign=middle;spacingTop=-1;spacingLeft=3;spacingRight=3;rotatable=0;labelPosition=right;points=[];portConstraint=eastwest;" parent="3TsEPh2uta-ocImclWXM-21" vertex="1">
          <mxGeometry y="40" width="140" height="8" as="geometry" />
        </mxCell>
        <mxCell id="3TsEPh2uta-ocImclWXM-25" value="&lt;u&gt;provided interfaces&lt;/u&gt;" style="html=1;align=center;spacingLeft=4;verticalAlign=top;strokeColor=none;fillColor=none;whiteSpace=wrap;" parent="3TsEPh2uta-ocImclWXM-21" vertex="1">
          <mxGeometry y="48" width="140" height="25" as="geometry" />
        </mxCell>
        <mxCell id="3TsEPh2uta-ocImclWXM-26" value="EBS Status ON/OFF" style="html=1;align=left;spacingLeft=4;verticalAlign=top;strokeColor=none;fillColor=none;whiteSpace=wrap;spacingRight=4;fontFamily=Helvetica;fontSize=12;fontColor=default;" parent="3TsEPh2uta-ocImclWXM-21" vertex="1">
          <mxGeometry y="73" width="140" height="25" as="geometry" />
        </mxCell>
        <mxCell id="3TsEPh2uta-ocImclWXM-27" value="Steering Command" style="html=1;align=left;spacingLeft=4;verticalAlign=top;strokeColor=none;fillColor=none;whiteSpace=wrap;" parent="3TsEPh2uta-ocImclWXM-21" vertex="1">
          <mxGeometry y="98" width="140" height="27" as="geometry" />
        </mxCell>
        <mxCell id="3TsEPh2uta-ocImclWXM-28" value="" style="line;strokeWidth=1;fillColor=none;align=left;verticalAlign=middle;spacingTop=-1;spacingLeft=3;spacingRight=3;rotatable=0;labelPosition=right;points=[];portConstraint=eastwest;" parent="3TsEPh2uta-ocImclWXM-21" vertex="1">
          <mxGeometry y="125" width="140" height="8" as="geometry" />
        </mxCell>
        <mxCell id="3TsEPh2uta-ocImclWXM-29" value="&lt;u&gt;required interfaces&lt;/u&gt;" style="html=1;align=center;spacingLeft=4;verticalAlign=top;strokeColor=none;fillColor=none;whiteSpace=wrap;" parent="3TsEPh2uta-ocImclWXM-21" vertex="1">
          <mxGeometry y="133" width="140" height="25" as="geometry" />
        </mxCell>
        <mxCell id="3TsEPh2uta-ocImclWXM-30" value="Velocity &amp;amp; Pose" style="html=1;align=left;spacingLeft=4;verticalAlign=top;strokeColor=none;fillColor=none;whiteSpace=wrap;" parent="3TsEPh2uta-ocImclWXM-21" vertex="1">
          <mxGeometry y="158" width="140" height="27" as="geometry" />
        </mxCell>
        <mxCell id="3TsEPh2uta-ocImclWXM-31" value="Path" style="html=1;align=left;spacingLeft=4;verticalAlign=top;strokeColor=none;fillColor=none;whiteSpace=wrap;" parent="3TsEPh2uta-ocImclWXM-21" vertex="1">
          <mxGeometry y="185" width="140" height="27" as="geometry" />
        </mxCell>
        <mxCell id="3TsEPh2uta-ocImclWXM-32" value="" style="rounded=0;orthogonalLoop=1;jettySize=auto;html=1;endArrow=halfCircle;endFill=0;endSize=6;strokeWidth=1;sketch=0;exitX=0.5;exitY=0;exitDx=0;exitDy=0;" parent="1" source="3TsEPh2uta-ocImclWXM-11" edge="1">
          <mxGeometry relative="1" as="geometry">
            <mxPoint x="480" y="790" as="sourcePoint" />
            <mxPoint x="340" y="500" as="targetPoint" />
            <Array as="points">
              <mxPoint x="215" y="500" />
            </Array>
          </mxGeometry>
        </mxCell>
        <mxCell id="3TsEPh2uta-ocImclWXM-33" value="" style="rounded=0;orthogonalLoop=1;jettySize=auto;html=1;endArrow=oval;endFill=0;sketch=0;sourcePerimeterSpacing=0;targetPerimeterSpacing=0;endSize=10;exitX=0.5;exitY=1;exitDx=0;exitDy=0;" parent="1" source="3TsEPh2uta-ocImclWXM-9" edge="1">
          <mxGeometry relative="1" as="geometry">
            <mxPoint x="545" y="760" as="sourcePoint" />
            <mxPoint x="340" y="500" as="targetPoint" />
          </mxGeometry>
        </mxCell>
        <mxCell id="3TsEPh2uta-ocImclWXM-34" value="" style="rounded=0;orthogonalLoop=1;jettySize=auto;html=1;endArrow=halfCircle;endFill=0;endSize=6;strokeWidth=1;sketch=0;exitX=0.5;exitY=0;exitDx=0;exitDy=0;" parent="1" source="3TsEPh2uta-ocImclWXM-22" edge="1">
          <mxGeometry relative="1" as="geometry">
            <mxPoint x="520" y="769" as="sourcePoint" />
            <mxPoint x="340" y="500" as="targetPoint" />
            <Array as="points">
              <mxPoint x="475" y="500" />
            </Array>
          </mxGeometry>
        </mxCell>
      </root>
    </mxGraphModel>
  </diagram>
  <diagram id="LxCvQttu2NEbvZlKYFPU" name="Lateral Control Flow Graph">
    <mxGraphModel dx="1434" dy="843" grid="1" gridSize="10" guides="1" tooltips="1" connect="1" arrows="1" fold="1" page="1" pageScale="1" pageWidth="827" pageHeight="1169" math="0" shadow="0">
      <root>
        <mxCell id="0" />
        <mxCell id="1" parent="0" />
        <mxCell id="YmUxr6TXu9fgOJESGduJ-1" style="edgeStyle=orthogonalEdgeStyle;rounded=0;orthogonalLoop=1;jettySize=auto;html=1;exitX=0.5;exitY=1;exitDx=0;exitDy=0;" parent="1" source="YmUxr6TXu9fgOJESGduJ-2" target="YmUxr6TXu9fgOJESGduJ-4" edge="1">
          <mxGeometry relative="1" as="geometry" />
        </mxCell>
        <mxCell id="YmUxr6TXu9fgOJESGduJ-2" value="" style="ellipse;whiteSpace=wrap;html=1;aspect=fixed;fillColor=#000000;" parent="1" vertex="1">
          <mxGeometry x="390" y="60" width="20" height="20" as="geometry" />
        </mxCell>
        <mxCell id="YmUxr6TXu9fgOJESGduJ-3" style="edgeStyle=orthogonalEdgeStyle;rounded=0;orthogonalLoop=1;jettySize=auto;html=1;exitX=0.5;exitY=1;exitDx=0;exitDy=0;" parent="1" source="YmUxr6TXu9fgOJESGduJ-4" target="YmUxr6TXu9fgOJESGduJ-7" edge="1">
          <mxGeometry relative="1" as="geometry" />
        </mxCell>
        <mxCell id="YmUxr6TXu9fgOJESGduJ-4" value="Get Desired Path and Vehicle State" style="rounded=1;whiteSpace=wrap;html=1;" parent="1" vertex="1">
          <mxGeometry x="344.5" y="120" width="111" height="40" as="geometry" />
        </mxCell>
        <mxCell id="YmUxr6TXu9fgOJESGduJ-5" style="edgeStyle=orthogonalEdgeStyle;rounded=0;orthogonalLoop=1;jettySize=auto;html=1;exitX=0;exitY=0.5;exitDx=0;exitDy=0;entryX=0.5;entryY=0;entryDx=0;entryDy=0;" parent="1" source="YmUxr6TXu9fgOJESGduJ-7" target="YmUxr6TXu9fgOJESGduJ-9" edge="1">
          <mxGeometry relative="1" as="geometry" />
        </mxCell>
        <mxCell id="YmUxr6TXu9fgOJESGduJ-6" style="edgeStyle=orthogonalEdgeStyle;rounded=0;orthogonalLoop=1;jettySize=auto;html=1;exitX=1;exitY=0.5;exitDx=0;exitDy=0;entryX=0.5;entryY=0;entryDx=0;entryDy=0;" parent="1" source="YmUxr6TXu9fgOJESGduJ-7" target="YmUxr6TXu9fgOJESGduJ-11" edge="1">
          <mxGeometry relative="1" as="geometry" />
        </mxCell>
        <mxCell id="YmUxr6TXu9fgOJESGduJ-7" value="Mission" style="rhombus;whiteSpace=wrap;html=1;" parent="1" vertex="1">
          <mxGeometry x="339.5" y="200" width="121" height="60" as="geometry" />
        </mxCell>
        <mxCell id="YmUxr6TXu9fgOJESGduJ-8" style="edgeStyle=orthogonalEdgeStyle;rounded=0;orthogonalLoop=1;jettySize=auto;html=1;exitX=0.5;exitY=1;exitDx=0;exitDy=0;entryX=0.5;entryY=0;entryDx=0;entryDy=0;" parent="1" source="YmUxr6TXu9fgOJESGduJ-9" target="YmUxr6TXu9fgOJESGduJ-15" edge="1">
          <mxGeometry relative="1" as="geometry" />
        </mxCell>
        <mxCell id="YmUxr6TXu9fgOJESGduJ-9" value="Calculate heading&amp;nbsp; cross-track error" style="rounded=1;whiteSpace=wrap;html=1;" parent="1" vertex="1">
          <mxGeometry x="210" y="280" width="111" height="40" as="geometry" />
        </mxCell>
        <mxCell id="YmUxr6TXu9fgOJESGduJ-10" style="edgeStyle=orthogonalEdgeStyle;rounded=0;orthogonalLoop=1;jettySize=auto;html=1;exitX=0.5;exitY=1;exitDx=0;exitDy=0;" parent="1" source="YmUxr6TXu9fgOJESGduJ-11" target="YmUxr6TXu9fgOJESGduJ-13" edge="1">
          <mxGeometry relative="1" as="geometry" />
        </mxCell>
        <mxCell id="YmUxr6TXu9fgOJESGduJ-11" value="Get Look-ahead distance" style="rounded=1;whiteSpace=wrap;html=1;" parent="1" vertex="1">
          <mxGeometry x="480" y="280" width="111" height="40" as="geometry" />
        </mxCell>
        <mxCell id="YmUxr6TXu9fgOJESGduJ-12" style="edgeStyle=orthogonalEdgeStyle;rounded=0;orthogonalLoop=1;jettySize=auto;html=1;exitX=0.5;exitY=1;exitDx=0;exitDy=0;entryX=1;entryY=0.5;entryDx=0;entryDy=0;" parent="1" source="YmUxr6TXu9fgOJESGduJ-13" target="YmUxr6TXu9fgOJESGduJ-17" edge="1">
          <mxGeometry relative="1" as="geometry" />
        </mxCell>
        <mxCell id="YmUxr6TXu9fgOJESGduJ-13" value="Pure Pursuit control Law" style="rounded=1;whiteSpace=wrap;html=1;" parent="1" vertex="1">
          <mxGeometry x="480" y="360" width="111" height="40" as="geometry" />
        </mxCell>
        <mxCell id="YmUxr6TXu9fgOJESGduJ-14" style="edgeStyle=orthogonalEdgeStyle;rounded=0;orthogonalLoop=1;jettySize=auto;html=1;exitX=0.5;exitY=1;exitDx=0;exitDy=0;entryX=0;entryY=0.5;entryDx=0;entryDy=0;" parent="1" source="YmUxr6TXu9fgOJESGduJ-15" target="YmUxr6TXu9fgOJESGduJ-17" edge="1">
          <mxGeometry relative="1" as="geometry" />
        </mxCell>
        <mxCell id="YmUxr6TXu9fgOJESGduJ-15" value="Stanley control Law" style="rounded=1;whiteSpace=wrap;html=1;" parent="1" vertex="1">
          <mxGeometry x="210" y="360" width="111" height="40" as="geometry" />
        </mxCell>
        <mxCell id="YmUxr6TXu9fgOJESGduJ-16" style="edgeStyle=orthogonalEdgeStyle;rounded=0;orthogonalLoop=1;jettySize=auto;html=1;exitX=0.5;exitY=1;exitDx=0;exitDy=0;entryX=0.5;entryY=0;entryDx=0;entryDy=0;" parent="1" source="YmUxr6TXu9fgOJESGduJ-17" target="YmUxr6TXu9fgOJESGduJ-18" edge="1">
          <mxGeometry relative="1" as="geometry" />
        </mxCell>
        <mxCell id="YmUxr6TXu9fgOJESGduJ-17" value="Publish Steering Command" style="rounded=1;whiteSpace=wrap;html=1;" parent="1" vertex="1">
          <mxGeometry x="344.5" y="440" width="111" height="40" as="geometry" />
        </mxCell>
        <mxCell id="YmUxr6TXu9fgOJESGduJ-18" value="" style="ellipse;html=1;shape=endState;fillColor=#000000;strokeColor=#ff0000;" parent="1" vertex="1">
          <mxGeometry x="385" y="520" width="30" height="30" as="geometry" />
        </mxCell>
        <mxCell id="YmUxr6TXu9fgOJESGduJ-19" value="Acceleration" style="text;html=1;align=center;verticalAlign=middle;resizable=0;points=[];autosize=1;strokeColor=none;fillColor=none;" parent="1" vertex="1">
          <mxGeometry x="254.5" y="230" width="90" height="30" as="geometry" />
        </mxCell>
        <mxCell id="YmUxr6TXu9fgOJESGduJ-20" value="Other than &lt;br&gt;acceleration" style="text;html=1;align=center;verticalAlign=middle;resizable=0;points=[];autosize=1;strokeColor=none;fillColor=none;" parent="1" vertex="1">
          <mxGeometry x="455.5" y="230" width="90" height="40" as="geometry" />
        </mxCell>
      </root>
    </mxGraphModel>
  </diagram>
  <diagram id="eVp-n00tlOvfbOcAlTK8" name="Longitudinal Control Flow Graph">
    <mxGraphModel dx="607" dy="843" grid="1" gridSize="10" guides="1" tooltips="1" connect="1" arrows="1" fold="1" page="1" pageScale="1" pageWidth="827" pageHeight="1169" math="0" shadow="0">
      <root>
        <mxCell id="0" />
        <mxCell id="1" parent="0" />
        <mxCell id="ItqePYpkfI2rmR744Cne-5" value="&lt;font style=&quot;font-size: 14px;&quot;&gt;Calculate error&lt;/font&gt;" style="rounded=1;whiteSpace=wrap;html=1;" parent="1" vertex="1">
          <mxGeometry x="1140" y="260" width="120" height="60" as="geometry" />
        </mxCell>
        <mxCell id="ItqePYpkfI2rmR744Cne-6" value="&lt;font style=&quot;font-size: 14px;&quot;&gt;PID framework&lt;/font&gt;" style="rounded=1;whiteSpace=wrap;html=1;" parent="1" vertex="1">
          <mxGeometry x="1140" y="350" width="120" height="60" as="geometry" />
        </mxCell>
        <mxCell id="ItqePYpkfI2rmR744Cne-10" value="" style="endArrow=classic;html=1;rounded=0;entryX=0.5;entryY=0;entryDx=0;entryDy=0;exitX=0.5;exitY=1;exitDx=0;exitDy=0;" parent="1" source="ItqePYpkfI2rmR744Cne-5" target="ItqePYpkfI2rmR744Cne-6" edge="1">
          <mxGeometry width="50" height="50" relative="1" as="geometry">
            <mxPoint x="1210" y="370" as="sourcePoint" />
            <mxPoint x="1260" y="320" as="targetPoint" />
          </mxGeometry>
        </mxCell>
        <mxCell id="ItqePYpkfI2rmR744Cne-12" value="" style="endArrow=classic;html=1;rounded=0;exitX=0.5;exitY=1;exitDx=0;exitDy=0;" parent="1" source="ItqePYpkfI2rmR744Cne-6" edge="1">
          <mxGeometry width="50" height="50" relative="1" as="geometry">
            <mxPoint x="1220" y="550" as="sourcePoint" />
            <mxPoint x="1200" y="450" as="targetPoint" />
          </mxGeometry>
        </mxCell>
        <mxCell id="ItqePYpkfI2rmR744Cne-15" value="" style="ellipse;html=1;shape=endState;fillColor=#000000;strokeColor=#ff0000;" parent="1" vertex="1">
          <mxGeometry x="1185" y="550" width="30" height="30" as="geometry" />
        </mxCell>
        <mxCell id="SEKuFX1QXz4S5pSuZ8Ld-1" value="" style="ellipse;whiteSpace=wrap;html=1;aspect=fixed;fillColor=#000000;" parent="1" vertex="1">
          <mxGeometry x="1190" y="90" width="20" height="20" as="geometry" />
        </mxCell>
        <mxCell id="yokWS5W83dAmJWkKfZFD-1" value="&lt;font style=&quot;font-size: 14px;&quot;&gt;Get current and ideal velocity&lt;/font&gt;" style="rounded=1;whiteSpace=wrap;html=1;" parent="1" vertex="1">
          <mxGeometry x="1140" y="160" width="120" height="60" as="geometry" />
        </mxCell>
        <mxCell id="yokWS5W83dAmJWkKfZFD-2" value="" style="endArrow=classic;html=1;rounded=0;entryX=0.5;entryY=0;entryDx=0;entryDy=0;exitX=0.5;exitY=1;exitDx=0;exitDy=0;" parent="1" source="SEKuFX1QXz4S5pSuZ8Ld-1" target="yokWS5W83dAmJWkKfZFD-1" edge="1">
          <mxGeometry width="50" height="50" relative="1" as="geometry">
            <mxPoint x="1100" y="100" as="sourcePoint" />
            <mxPoint x="1150" y="50" as="targetPoint" />
          </mxGeometry>
        </mxCell>
        <mxCell id="yokWS5W83dAmJWkKfZFD-3" value="" style="endArrow=classic;html=1;rounded=0;entryX=0.5;entryY=0;entryDx=0;entryDy=0;exitX=0.5;exitY=1;exitDx=0;exitDy=0;" parent="1" source="yokWS5W83dAmJWkKfZFD-1" target="ItqePYpkfI2rmR744Cne-5" edge="1">
          <mxGeometry width="50" height="50" relative="1" as="geometry">
            <mxPoint x="1060" y="290" as="sourcePoint" />
            <mxPoint x="1110" y="240" as="targetPoint" />
          </mxGeometry>
        </mxCell>
        <mxCell id="aiwf7KhrPEVNZfpYWQEs-1" value="&lt;font style=&quot;font-size: 14px;&quot;&gt;Publish torque command&lt;/font&gt;" style="rounded=1;whiteSpace=wrap;html=1;" parent="1" vertex="1">
          <mxGeometry x="1140" y="450" width="120" height="60" as="geometry" />
        </mxCell>
        <mxCell id="aiwf7KhrPEVNZfpYWQEs-2" value="" style="endArrow=classic;html=1;rounded=0;entryX=0.5;entryY=0;entryDx=0;entryDy=0;exitX=0.5;exitY=1;exitDx=0;exitDy=0;" parent="1" source="aiwf7KhrPEVNZfpYWQEs-1" target="ItqePYpkfI2rmR744Cne-15" edge="1">
          <mxGeometry width="50" height="50" relative="1" as="geometry">
            <mxPoint x="1060" y="400" as="sourcePoint" />
            <mxPoint x="1110" y="350" as="targetPoint" />
          </mxGeometry>
        </mxCell>
      </root>
    </mxGraphModel>
  </diagram>
</mxfile>
